<?xml version="1.0" encoding="UTF-8"?>
<svg id="Layer_2" data-name="Layer 2" xmlns="http://www.w3.org/2000/svg" viewBox="0 0 162 162">
  <defs>
    <style>
      .cls-1 {
        fill: none;
      }

      .cls-2 {
        fill: #4285f4;
      }

      .cls-3 {
        fill: #0f9d58;
      }

      .cls-4 {
        fill: #db4437;
      }

      .cls-5 {
        fill: #f4b400;
      }
    </style>
  </defs>
  <g id="Layer_1-2" data-name="Layer 1">
    <g>
      <path class="cls-1" d="M81,94.5h52.2c-2.92,11.12-9.23,20.84-17.75,27.97-9.35,7.83-21.36,12.53-34.45,12.53-21.67,0-40.35-12.88-48.96-31.47-3.23-6.99-5.04-14.8-5.04-23.03,0-7.29,1.42-14.24,3.99-20.6,8.05-19.89,27.41-33.9,50.01-33.9,13.46,0,25.77,4.97,35.23,13.2,1.11.96,2.18,1.97,3.21,3.03l18.52-18.82c11.81,11.68,20.05,26.98,22.92,44.09h-79.88v27Z"/>
      <path class="cls-4" d="M137.96,23.41l-18.52,18.82c-1.03-1.06-2.1-2.07-3.21-3.03-9.46-8.23-21.77-13.2-35.23-13.2-22.6,0-41.96,14.01-50.01,33.9l-21.9-16.23C22.59,17.72,49.72,0,81,0c21.97,0,41.9,8.74,56.49,22.95.16.15.32.3.47.46Z"/>
      <path class="cls-5" d="M32.04,103.53l-21.9,16.74C3.68,108.64,0,95.25,0,81c0-13.46,3.28-26.16,9.09-37.33l21.9,16.23c-2.57,6.36-3.99,13.31-3.99,20.6,0,8.23,1.81,16.04,5.04,23.03Z"/>
      <path class="cls-3" d="M137.64,138.91c-14.6,14.29-34.59,23.09-56.64,23.09-30.49,0-57.04-16.84-70.86-41.73l21.9-16.74c8.61,18.59,27.29,31.47,48.96,31.47,13.09,0,25.1-4.7,34.45-12.53l22.19,16.44Z"/>
      <path class="cls-2" d="M162,81c0,4.6-.38,9.11-1.12,13.5-2.9,17.27-11.25,32.68-23.24,44.41l-22.19-16.44c8.52-7.13,14.83-16.85,17.75-27.97h-52.2v-27h79.88c.74,4.39,1.12,8.9,1.12,13.5Z"/>
    </g>
  </g>
</svg>